<svg width="20" height="11" viewBox="0 0 20 11" fill="none" xmlns="http://www.w3.org/2000/svg">
<path d="M9 10.7109H5C3.61667 10.7109 2.43767 10.2233 1.463 9.24794C0.487667 8.27327 0 7.09427 0 5.71094C0 4.3276 0.487667 3.14827 1.463 2.17294C2.43767 1.19827 3.61667 0.710938 5 0.710938H9V2.71094H5C4.16667 2.71094 3.45833 3.0026 2.875 3.58594C2.29167 4.16927 2 4.8776 2 5.71094C2 6.54427 2.29167 7.2526 2.875 7.83594C3.45833 8.41927 4.16667 8.71094 5 8.71094H9V10.7109ZM6 6.71094V4.71094H14V6.71094H6ZM11 10.7109V8.71094H15C15.8333 8.71094 16.5417 8.41927 17.125 7.83594C17.7083 7.2526 18 6.54427 18 5.71094C18 4.8776 17.7083 4.16927 17.125 3.58594C16.5417 3.0026 15.8333 2.71094 15 2.71094H11V0.710938H15C16.3833 0.710938 17.5627 1.19827 18.538 2.17294C19.5127 3.14827 20 4.3276 20 5.71094C20 7.09427 19.5127 8.27327 18.538 9.24794C17.5627 10.2233 16.3833 10.7109 15 10.7109H11Z" fill="#1E1E1E"/>
</svg>
