<svg width="35" height="34" viewBox="0 0 35 34" fill="none" xmlns="http://www.w3.org/2000/svg">
<path d="M24.5 17.0002C24.5 15.8668 24.4 14.7668 24.2667 13.6668H29.9C30.1667 14.7335 30.3333 15.8502 30.3333 17.0002C30.3333 17.6168 30.2833 18.2168 30.2 18.8002C31.35 18.9668 32.4167 19.3335 33.4 19.8668C33.5667 18.9335 33.6667 17.9835 33.6667 17.0002C33.6667 7.8335 26.1667 0.333496 17 0.333496C7.78334 0.333496 0.333344 7.8335 0.333344 17.0002C0.333344 26.1668 7.83334 33.6668 17 33.6668C17.9833 33.6668 18.9333 33.5668 19.8667 33.4002C19.0751 31.9484 18.6623 30.3204 18.6667 28.6668C18.6667 28.1835 18.7167 27.7168 18.7833 27.2502C18.25 28.3002 17.6667 29.3168 17 30.2668C15.6167 28.2668 14.5 26.0502 13.8167 23.6668H20.0167C21.0177 21.9274 22.5229 20.5327 24.3333 19.6668C24.4333 18.7835 24.5 17.9002 24.5 17.0002ZM17 3.71683C18.3833 5.71683 19.5 7.95016 20.1833 10.3335H13.8167C14.5 7.95016 15.6167 5.71683 17 3.71683ZM4.10001 20.3335C3.83334 19.2668 3.66668 18.1502 3.66668 17.0002C3.66668 15.8502 3.83334 14.7335 4.10001 13.6668H9.73334C9.60001 14.7668 9.50001 15.8668 9.50001 17.0002C9.50001 18.1335 9.60001 19.2335 9.73334 20.3335H4.10001ZM5.46668 23.6668H10.3333C10.9167 25.7502 11.6667 27.7502 12.6667 29.6002C9.63105 28.5529 7.07475 26.4464 5.46668 23.6668ZM10.3333 10.3335H5.46668C7.06477 7.54552 9.62467 5.43597 12.6667 4.40016C11.6667 6.25016 10.9167 8.25016 10.3333 10.3335ZM20.9 20.3335H13.1C12.9333 19.2335 12.8333 18.1335 12.8333 17.0002C12.8333 15.8668 12.9333 14.7502 13.1 13.6668H20.9C21.05 14.7502 21.1667 15.8668 21.1667 17.0002C21.1667 18.1335 21.05 19.2335 20.9 20.3335ZM21.3167 4.40016C24.3833 5.45016 26.9333 7.56683 28.5333 10.3335H23.6167C23.095 8.26926 22.3226 6.27666 21.3167 4.40016ZM34.5 25.7502L26.5833 33.6668L22 28.6668L23.9333 26.7335L26.5833 29.3835L32.5667 23.4002L34.5 25.7502Z" fill="white"/>
</svg>
